<svg width="169" height="34" viewBox="0 0 169 34" fill="none" xmlns="http://www.w3.org/2000/svg">
<path fill-rule="evenodd" clip-rule="evenodd" d="M24.6475 1.81311C22.3487 0.653265 19.7506 0 17 0C16.3934 0 15.7942 0.0317725 15.204 0.0937442L13.1261 10.78H22.9039L24.6475 1.81311ZM12.9034 0.49686L10.9039 10.78L1.17386 10.78C3.16914 5.70723 7.53292 1.82557 12.9034 0.49686ZM10.4718 13.0023L0.472717 13.0022C0.163706 14.2843 0 15.623 0 17C0 19.1121 0.385172 21.1342 1.08911 23H8.52778L10.4718 13.0023ZM8.09568 25.2222H2.11708C3.32787 27.4092 5.0067 29.301 7.01839 30.7626L8.09568 25.2222ZM10.3179 25.2222H20.0957L18.3999 33.9432C17.9383 33.9808 17.4714 34 17 34C14.1075 34 11.3838 33.2776 8.99933 32.0034L10.3179 25.2222ZM20.5278 23L10.75 23L12.694 13.0023H22.4718L20.5278 23ZM22.3179 25.2222L20.6892 33.5986C25.5079 32.5324 29.5582 29.4213 31.8829 25.2222H22.3179ZM32.9109 23H22.75L24.694 13.0023L33.5273 13.0023C33.8363 14.2843 34 15.623 34 17C34 19.1121 33.6148 21.1342 32.9109 23ZM26.6398 2.99543C29.4057 4.90295 31.5788 7.60873 32.8261 10.78L25.1261 10.78L26.6398 2.99543Z" fill="#536E9B"/>
<path d="M48.778 8.424C50.8313 8.424 52.452 9.02533 53.64 10.228C54.828 11.416 55.422 13.1247 55.422 15.354V24H53.222V19.754H44.334V24H42.178V15.354C42.178 13.1247 42.772 11.416 43.96 10.228C45.148 9.02533 46.754 8.424 48.778 8.424ZM53.222 17.84V15.156C53.222 13.5867 52.826 12.3987 52.034 11.592C51.2567 10.7853 50.1713 10.382 48.778 10.382C47.3847 10.382 46.292 10.7853 45.5 11.592C44.7227 12.3987 44.334 13.5867 44.334 15.156V17.84H53.222ZM58.8497 17.048H64.7677V18.874H58.8497V17.048ZM81.6816 8.6V24H79.5256V10.514H70.5936V24H68.4156V8.6H81.6816ZM92.4239 8.468C94.4479 8.468 96.0319 8.98867 97.1759 10.03C98.3199 11.0713 98.8919 12.5087 98.8919 14.342C98.8919 16.1167 98.3639 17.51 97.3079 18.522C96.2519 19.5193 94.7999 20.018 92.9519 20.018C92.1453 20.018 91.3679 19.9153 90.6199 19.71C89.8719 19.5047 89.0873 19.1747 88.2659 18.72V24H86.1099V14.65C86.1099 12.6847 86.6599 11.1667 87.7599 10.096C88.8599 9.01067 90.4146 8.468 92.4239 8.468ZM92.5779 18.236C93.8539 18.236 94.8586 17.8987 95.5919 17.224C96.3253 16.5347 96.6919 15.5887 96.6919 14.386C96.6919 13.154 96.3179 12.1933 95.5699 11.504C94.8219 10.8 93.7953 10.448 92.4899 10.448C91.1553 10.448 90.1139 10.8147 89.3659 11.548C88.6326 12.2667 88.2659 13.2933 88.2659 14.628V16.696C88.8673 17.1947 89.5346 17.576 90.2679 17.84C91.0013 18.104 91.7713 18.236 92.5779 18.236ZM114.799 8.6V24H112.687V21.822C111.645 23.3913 109.973 24.176 107.671 24.176C105.837 24.176 104.4 23.6187 103.359 22.504C102.332 21.3893 101.819 19.798 101.819 17.73V8.6H104.019V17.664C104.019 19.1453 104.385 20.2747 105.119 21.052C105.852 21.8293 106.857 22.218 108.133 22.218C109.511 22.218 110.604 21.8073 111.411 20.986C112.217 20.1647 112.621 18.9473 112.621 17.334V8.6H114.799ZM126.435 24.176C124.881 24.176 123.48 23.8387 122.233 23.164C120.987 22.4747 120.004 21.5287 119.285 20.326C118.581 19.1233 118.229 17.7813 118.229 16.3C118.229 14.8187 118.581 13.4767 119.285 12.274C120.004 11.0713 120.987 10.1327 122.233 9.458C123.48 8.76867 124.881 8.424 126.435 8.424C127.975 8.424 129.369 8.76867 130.615 9.458C131.862 10.1327 132.837 11.0713 133.541 12.274C134.245 13.462 134.597 14.804 134.597 16.3C134.597 17.796 134.245 19.1453 133.541 20.348C132.837 21.536 131.862 22.4747 130.615 23.164C129.369 23.8387 127.975 24.176 126.435 24.176ZM126.435 22.218C127.565 22.218 128.577 21.9613 129.471 21.448C130.381 20.9347 131.092 20.2307 131.605 19.336C132.133 18.4267 132.397 17.4147 132.397 16.3C132.397 15.1853 132.133 14.1807 131.605 13.286C131.092 12.3767 130.381 11.6653 129.471 11.152C128.577 10.6387 127.565 10.382 126.435 10.382C125.306 10.382 124.279 10.6387 123.355 11.152C122.446 11.6653 121.727 12.3767 121.199 13.286C120.686 14.1807 120.429 15.1853 120.429 16.3C120.429 17.4147 120.686 18.4267 121.199 19.336C121.727 20.2307 122.446 20.9347 123.355 21.448C124.279 21.9613 125.306 22.218 126.435 22.218ZM144.094 8.468C146.118 8.468 147.702 8.98867 148.846 10.03C149.99 11.0713 150.562 12.5087 150.562 14.342C150.562 16.1167 150.034 17.51 148.978 18.522C147.922 19.5193 146.47 20.018 144.622 20.018C143.815 20.018 143.038 19.9153 142.29 19.71C141.542 19.5047 140.757 19.1747 139.936 18.72V24H137.78V14.65C137.78 12.6847 138.33 11.1667 139.43 10.096C140.53 9.01067 142.085 8.468 144.094 8.468ZM144.248 18.236C145.524 18.236 146.529 17.8987 147.262 17.224C147.995 16.5347 148.362 15.5887 148.362 14.386C148.362 13.154 147.988 12.1933 147.24 11.504C146.492 10.8 145.465 10.448 144.16 10.448C142.825 10.448 141.784 10.8147 141.036 11.548C140.303 12.2667 139.936 13.2933 139.936 14.628V16.696C140.537 17.1947 141.205 17.576 141.938 17.84C142.671 18.104 143.441 18.236 144.248 18.236ZM166.469 8.6V24H164.357V21.822C163.315 23.3913 161.643 24.176 159.341 24.176C157.507 24.176 156.07 23.6187 155.029 22.504C154.002 21.3893 153.489 19.798 153.489 17.73V8.6H155.689V17.664C155.689 19.1453 156.055 20.2747 156.789 21.052C157.522 21.8293 158.527 22.218 159.803 22.218C161.181 22.218 162.274 21.8073 163.081 20.986C163.887 20.1647 164.291 18.9473 164.291 17.334V8.6H166.469Z" fill="#536E9B"/>
</svg>
