<svg width="175" height="27" viewBox="0 0 175 27" fill="none" xmlns="http://www.w3.org/2000/svg">
<path d="M16.588 9.23C18.0547 9.23 19.2133 9.65533 20.064 10.506C20.9293 11.3567 21.362 12.618 21.362 14.29V21H19.25V14.532C19.25 13.4027 18.986 12.552 18.458 11.98C17.9447 11.408 17.204 11.122 16.236 11.122C15.1653 11.122 14.3147 11.4593 13.684 12.134C13.0533 12.794 12.738 13.7473 12.738 14.994V21H10.626V14.532C10.626 13.4027 10.362 12.552 9.834 11.98C9.32067 11.408 8.58 11.122 7.612 11.122C6.54133 11.122 5.69067 11.4593 5.06 12.134C4.42933 12.794 4.114 13.7473 4.114 14.994V21H2.002V9.34H4.026V11.078C4.45133 10.4767 5.00867 10.022 5.698 9.714C6.38733 9.39133 7.172 9.23 8.052 9.23C8.96133 9.23 9.768 9.41333 10.472 9.78C11.176 10.1467 11.7187 10.682 12.1 11.386C12.54 10.7113 13.1487 10.1833 13.926 9.802C14.718 9.42067 15.6053 9.23 16.588 9.23ZM36.1161 9.34V19.416C36.1161 21.4547 35.6394 22.958 34.6861 23.926C33.7328 24.9087 32.3028 25.4 30.3961 25.4C29.3548 25.4 28.3574 25.246 27.4041 24.938C26.4654 24.6447 25.6954 24.2193 25.0941 23.662L26.1281 22.034C26.6414 22.5033 27.2574 22.87 27.9761 23.134C28.7094 23.398 29.4794 23.53 30.2861 23.53C31.5621 23.53 32.5008 23.2073 33.1021 22.562C33.7034 21.9313 34.0041 20.956 34.0041 19.636V18.778C33.5788 19.3353 33.0288 19.768 32.3541 20.076C31.6794 20.3693 30.9461 20.516 30.1541 20.516C28.5994 20.516 27.3748 20.0907 26.4801 19.24C25.5854 18.3893 25.1381 17.128 25.1381 15.456V9.34H27.2501V15.214C27.2501 16.3287 27.5214 17.1793 28.0641 17.766C28.6068 18.338 29.3841 18.624 30.3961 18.624C31.5108 18.624 32.3908 18.2867 33.0361 17.612C33.6814 16.9373 34.0041 15.984 34.0041 14.752V9.34H36.1161ZM46.4508 5.6C48.4454 5.6 50.0148 6.07667 51.1588 7.03C52.3028 7.98333 52.8748 9.296 52.8748 10.968C52.8748 12.64 52.3028 13.9527 51.1588 14.906C50.0148 15.8593 48.4454 16.336 46.4508 16.336H42.6448V21H40.4448V5.6H46.4508ZM46.3848 14.422C47.7781 14.422 48.8414 14.1287 49.5748 13.542C50.3081 12.9407 50.6748 12.0827 50.6748 10.968C50.6748 9.85333 50.3081 9.00267 49.5748 8.416C48.8414 7.81467 47.7781 7.514 46.3848 7.514H42.6448V14.422H46.3848ZM66.7559 9.34V21H64.7319V19.152C64.2626 19.7973 63.6686 20.2887 62.9499 20.626C62.2312 20.9633 61.4392 21.132 60.5739 21.132C59.4446 21.132 58.4326 20.8827 57.5379 20.384C56.6432 19.8853 55.9392 19.1887 55.4259 18.294C54.9272 17.3847 54.6779 16.3433 54.6779 15.17C54.6779 13.9967 54.9272 12.9627 55.4259 12.068C55.9392 11.1733 56.6432 10.4767 57.5379 9.978C58.4326 9.47933 59.4446 9.23 60.5739 9.23C61.4099 9.23 62.1799 9.39133 62.8839 9.714C63.5879 10.022 64.1746 10.484 64.6439 11.1V9.34H66.7559ZM60.7499 19.284C61.4832 19.284 62.1506 19.1153 62.7519 18.778C63.3532 18.426 63.8226 17.942 64.1599 17.326C64.4972 16.6953 64.6659 15.9767 64.6659 15.17C64.6659 14.3633 64.4972 13.652 64.1599 13.036C63.8226 12.4053 63.3532 11.9213 62.7519 11.584C62.1506 11.2467 61.4832 11.078 60.7499 11.078C60.0019 11.078 59.3272 11.2467 58.7259 11.584C58.1392 11.9213 57.6699 12.4053 57.3179 13.036C56.9806 13.652 56.8119 14.3633 56.8119 15.17C56.8119 15.9767 56.9806 16.6953 57.3179 17.326C57.6699 17.942 58.1392 18.426 58.7259 18.778C59.3272 19.1153 60.0019 19.284 60.7499 19.284ZM72.776 11.298C73.1427 10.6233 73.6853 10.11 74.404 9.758C75.1227 9.406 75.9953 9.23 77.022 9.23V11.276C76.9047 11.2613 76.7433 11.254 76.538 11.254C75.394 11.254 74.492 11.5987 73.832 12.288C73.1867 12.9627 72.864 13.9307 72.864 15.192V21H70.752V9.34H72.776V11.298ZM84.157 15.566L81.737 17.81V21H79.625V4.676H81.737V15.148L88.095 9.34H90.647L85.741 14.158L91.131 21H88.535L84.157 15.566ZM93.0313 9.34H95.1433V21H93.0313V9.34ZM94.0873 7.096C93.6766 7.096 93.332 6.964 93.0533 6.7C92.7893 6.436 92.6573 6.11333 92.6573 5.732C92.6573 5.35067 92.7893 5.028 93.0533 4.764C93.332 4.48533 93.6766 4.346 94.0873 4.346C94.498 4.346 94.8353 4.478 95.0993 4.742C95.378 4.99133 95.5173 5.30667 95.5173 5.688C95.5173 6.084 95.378 6.42133 95.0993 6.7C94.8353 6.964 94.498 7.096 94.0873 7.096ZM105.402 9.23C106.883 9.23 108.056 9.66267 108.922 10.528C109.802 11.3787 110.242 12.6327 110.242 14.29V21H108.13V14.532C108.13 13.4027 107.858 12.552 107.316 11.98C106.773 11.408 105.996 11.122 104.984 11.122C103.84 11.122 102.938 11.4593 102.278 12.134C101.618 12.794 101.288 13.7473 101.288 14.994V21H99.1758V9.34H101.2V11.1C101.625 10.4987 102.197 10.0367 102.916 9.714C103.649 9.39133 104.478 9.23 105.402 9.23ZM125.369 9.34V19.416C125.369 21.4547 124.863 22.958 123.851 23.926C122.839 24.9087 121.328 25.4 119.319 25.4C118.219 25.4 117.17 25.246 116.173 24.938C115.176 24.6447 114.369 24.2193 113.753 23.662L114.765 22.034C115.308 22.5033 115.975 22.87 116.767 23.134C117.574 23.4127 118.402 23.552 119.253 23.552C120.617 23.552 121.622 23.2293 122.267 22.584C122.927 21.9387 123.257 20.956 123.257 19.636V18.712C122.758 19.3133 122.142 19.768 121.409 20.076C120.69 20.3693 119.906 20.516 119.055 20.516C117.94 20.516 116.928 20.2813 116.019 19.812C115.124 19.328 114.42 18.6607 113.907 17.81C113.394 16.9447 113.137 15.962 113.137 14.862C113.137 13.762 113.394 12.7867 113.907 11.936C114.42 11.0707 115.124 10.4033 116.019 9.934C116.928 9.46467 117.94 9.23 119.055 9.23C119.935 9.23 120.749 9.39133 121.497 9.714C122.26 10.0367 122.883 10.5133 123.367 11.144V9.34H125.369ZM119.297 18.668C120.06 18.668 120.742 18.5067 121.343 18.184C121.959 17.8613 122.436 17.414 122.773 16.842C123.125 16.2553 123.301 15.5953 123.301 14.862C123.301 13.7327 122.927 12.8233 122.179 12.134C121.431 11.43 120.47 11.078 119.297 11.078C118.109 11.078 117.141 11.43 116.393 12.134C115.645 12.8233 115.271 13.7327 115.271 14.862C115.271 15.5953 115.44 16.2553 115.777 16.842C116.129 17.414 116.606 17.8613 117.207 18.184C117.823 18.5067 118.52 18.668 119.297 18.668ZM129.91 21.132C129.5 21.132 129.148 20.9927 128.854 20.714C128.561 20.4207 128.414 20.054 128.414 19.614C128.414 19.1887 128.561 18.8367 128.854 18.558C129.148 18.2647 129.5 18.118 129.91 18.118C130.321 18.118 130.666 18.2573 130.944 18.536C131.223 18.8147 131.362 19.174 131.362 19.614C131.362 20.054 131.216 20.4207 130.922 20.714C130.644 20.9927 130.306 21.132 129.91 21.132ZM134.389 9.34H136.501V21H134.389V9.34ZM135.445 7.096C135.034 7.096 134.689 6.964 134.411 6.7C134.147 6.436 134.015 6.11333 134.015 5.732C134.015 5.35067 134.147 5.028 134.411 4.764C134.689 4.48533 135.034 4.346 135.445 4.346C135.855 4.346 136.193 4.478 136.457 4.742C136.735 4.99133 136.875 5.30667 136.875 5.688C136.875 6.084 136.735 6.42133 136.457 6.7C136.193 6.964 135.855 7.096 135.445 7.096ZM146.759 9.23C148.241 9.23 149.414 9.66267 150.279 10.528C151.159 11.3787 151.599 12.6327 151.599 14.29V21H149.487V14.532C149.487 13.4027 149.216 12.552 148.673 11.98C148.131 11.408 147.353 11.122 146.341 11.122C145.197 11.122 144.295 11.4593 143.635 12.134C142.975 12.794 142.645 13.7473 142.645 14.994V21H140.533V9.34H142.557V11.1C142.983 10.4987 143.555 10.0367 144.273 9.714C145.007 9.39133 145.835 9.23 146.759 9.23ZM159.468 6.282C158.207 6.282 157.576 6.964 157.576 8.328V9.34H160.986V11.078H157.62V21H155.508V8.306C155.508 7.14733 155.845 6.23067 156.52 5.556C157.195 4.88133 158.141 4.544 159.358 4.544C159.827 4.544 160.267 4.60267 160.678 4.72C161.089 4.83733 161.441 5.006 161.734 5.226L161.096 6.832C160.612 6.46533 160.069 6.282 159.468 6.282ZM167.785 21.132C166.626 21.132 165.585 20.8753 164.661 20.362C163.737 19.8487 163.011 19.1447 162.483 18.25C161.97 17.3407 161.713 16.314 161.713 15.17C161.713 14.026 161.97 13.0067 162.483 12.112C163.011 11.2027 163.737 10.4987 164.661 10C165.585 9.48667 166.626 9.23 167.785 9.23C168.944 9.23 169.978 9.48667 170.887 10C171.811 10.4987 172.53 11.2027 173.043 12.112C173.571 13.0067 173.835 14.026 173.835 15.17C173.835 16.314 173.571 17.3407 173.043 18.25C172.53 19.1447 171.811 19.8487 170.887 20.362C169.978 20.8753 168.944 21.132 167.785 21.132ZM167.785 19.284C168.533 19.284 169.2 19.1153 169.787 18.778C170.388 18.426 170.858 17.942 171.195 17.326C171.532 16.6953 171.701 15.9767 171.701 15.17C171.701 14.3633 171.532 13.652 171.195 13.036C170.858 12.4053 170.388 11.9213 169.787 11.584C169.2 11.2467 168.533 11.078 167.785 11.078C167.037 11.078 166.362 11.2467 165.761 11.584C165.174 11.9213 164.705 12.4053 164.353 13.036C164.016 13.652 163.847 14.3633 163.847 15.17C163.847 15.9767 164.016 16.6953 164.353 17.326C164.705 17.942 165.174 18.426 165.761 18.778C166.362 19.1153 167.037 19.284 167.785 19.284Z" fill="#536E9B"/>
</svg>
